<?xml version="1.0" encoding="utf-8"?>
<!-- Generator: Adobe Illustrator 19.2.1, SVG Export Plug-In . SVG Version: 6.00 Build 0)  -->
<svg version="1.1" id="Layer_1" xmlns="http://www.w3.org/2000/svg" xmlns:xlink="http://www.w3.org/1999/xlink" x="0px" y="0px"
	 width="100px" height="100px" viewBox="0 0 100 100" style="enable-background:new 0 0 100 100;" xml:space="preserve">
<style type="text/css">
	.st0{fill:#F1F2F2;}
	.st1{fill:#414042;}
	.st2{fill:#85B6D1;stroke:#020202;stroke-width:6;stroke-linecap:round;stroke-linejoin:round;}
</style>
<circle class="st0" cx="50" cy="50" r="45.1"/>
<g>
	<path class="st1" d="M52.2,34.4c0-0.9,0.5-2.2,2-2.2h5.2V23h-9.7c-3.3,0-8.3,4.1-8.3,8.5v9.4h-5.6v9.2l5.6,0v21.9h10.7V50.2h7.3
		l1.8-9.1h-9V34.4z"/>
	<g>
		<g>
			<path class="st1" d="M50,2C23.5,2,2,23.5,2,50c0,26.5,21.5,48,48,48c26.5,0,48-21.5,48-48C98,23.5,76.5,2,50,2z M50,95
				C25.1,95,5,74.8,5,50C5,25.1,25.1,5,50,5c24.9,0,45,20.1,45,45C95,74.8,74.9,95,50,95z"/>
		</g>
	</g>
</g>
</svg>
