<?xml version="1.0" encoding="utf-8"?>
<!-- Generator: Adobe Illustrator 19.2.1, SVG Export Plug-In . SVG Version: 6.00 Build 0)  -->
<svg version="1.1" id="Layer_1" xmlns="http://www.w3.org/2000/svg" xmlns:xlink="http://www.w3.org/1999/xlink" x="0px" y="0px"
	 width="100px" height="100px" viewBox="0 0 100 100" style="enable-background:new 0 0 100 100;" xml:space="preserve">
<style type="text/css">
	.st0{fill:#EF4223;}
	.st1{fill:#414042;}
	.st2{fill:#85B6D1;stroke:#020202;stroke-width:6;stroke-linecap:round;stroke-linejoin:round;}
</style>
<circle class="st0" cx="50" cy="49.9" r="45.1"/>
<polyline class="st1" points="66.1,60.5 69.8,60.5 69.8,53.1 77.1,53.1 77.1,49.4 69.8,49.4 69.8,42 66.1,42 66.1,49.4 58.7,49.4 
	58.7,53.1 66.1,53.1 "/>
<path class="st1" d="M53.6,57.8c-0.5-0.7-1.1-1.3-1.7-1.9c-0.6-0.6-1.2-1.1-1.8-1.6c-0.6-0.5-1.2-0.9-1.7-1.4
	c-0.5-0.4-0.9-0.9-1.2-1.4c-0.3-0.5-0.5-1-0.5-1.5c0-0.7,0.2-1.3,0.7-1.9c0.4-0.6,1-1.2,1.6-1.8c0.6-0.6,1.3-1.2,1.9-1.9
	c0.6-0.7,1.2-1.6,1.6-2.7c0.4-1.1,0.7-2.4,0.7-3.8c0-1.7-0.4-3.3-1.1-4.9c-0.8-1.6-1.8-2.8-3.2-3.6h3.9l3.9-2.3H44
	c-1.8,0-3.6,0.2-5.4,0.6c-2.7,0.6-4.9,2-6.8,4.1c-1.8,2.1-2.7,4.5-2.7,7.2c0,2.8,1,5.2,3.1,7.1c2,1.9,4.5,2.8,7.4,2.8
	c0.6,0,1.2,0,2-0.1c0,0.2-0.1,0.4-0.2,0.6c-0.1,0.3-0.2,0.5-0.2,0.6c-0.1,0.2-0.1,0.3-0.1,0.6c0,0.2-0.1,0.4-0.1,0.7
	c0,1.3,0.6,2.7,1.8,4.3c-1.5,0-2.9,0.2-4.3,0.4c-1.4,0.2-2.9,0.6-4.5,1c-1.6,0.5-3,1.2-4.2,2c-1.2,0.9-2.2,2-2.8,3.2
	c-0.7,1.4-1.1,2.7-1.1,3.9c0,1.3,0.3,2.5,0.9,3.5c0.6,1,1.3,1.9,2.2,2.6c0.9,0.7,1.9,1.2,3.1,1.7c1.2,0.5,2.4,0.8,3.5,1
	c1.2,0.2,2.3,0.3,3.4,0.3c5.2,0,9.2-1.3,12.1-3.8c2.7-2.3,4-5.1,4-8.1c0-1.1-0.2-2.1-0.5-3.1C54.5,59.3,54.1,58.5,53.6,57.8z
	 M42.4,47.3c-1,0-1.9-0.2-2.8-0.8c-0.9-0.5-1.6-1.1-2.2-1.9c-0.6-0.8-1.2-1.7-1.6-2.7c-0.5-1-0.8-2-1-3c-0.2-1-0.3-2-0.3-2.9
	c0-1.8,0.5-3.4,1.5-4.8c1-1.3,2.4-2,4.2-2c1.3,0,2.4,0.4,3.4,1.2c1,0.8,1.8,1.8,2.4,3c0.6,1.2,1,2.5,1.4,3.8
	c0.3,1.3,0.5,2.5,0.5,3.7c0,1.9-0.4,3.5-1.3,4.6C45.7,46.7,44.3,47.3,42.4,47.3z M50.4,69c-0.5,0.9-1.2,1.6-2.1,2.1
	c-0.9,0.5-1.9,0.9-2.9,1.1c-1,0.2-2.1,0.4-3.2,0.4c-1.2,0-2.5-0.1-3.7-0.4c-1.2-0.3-2.4-0.7-3.5-1.3c-1.1-0.6-2-1.4-2.7-2.4
	c-0.7-1-1-2.2-1-3.5c0-1.2,0.3-2.2,0.8-3.1c0.5-0.9,1.2-1.6,2-2.2c0.8-0.5,1.7-1,2.8-1.3C38,58,39,57.7,40,57.6c1-0.1,2-0.2,3.1-0.2
	c0.6,0,1.1,0,1.4,0.1c0.1,0.1,0.4,0.3,0.9,0.6c0.5,0.3,0.8,0.5,1,0.7c0.2,0.1,0.5,0.3,0.9,0.7c0.4,0.3,0.7,0.6,0.9,0.7
	c0.2,0.2,0.4,0.4,0.8,0.7c0.3,0.3,0.6,0.6,0.8,0.9c0.2,0.2,0.4,0.5,0.6,0.9c0.2,0.3,0.4,0.7,0.5,1c0.1,0.3,0.2,0.7,0.3,1
	c0.1,0.4,0.1,0.8,0.1,1.2C51.2,67,50.9,68.1,50.4,69z"/>
<g>
	<g>
		<g>
			<path class="st1" d="M50,1.9c-26.5,0-48,21.5-48,48c0,26.5,21.5,48,48,48c26.5,0,48-21.5,48-48C98,23.4,76.5,1.9,50,1.9z
				 M50,94.9c-24.9,0-45-20.2-45-45c0-24.9,20.1-45,45-45c24.9,0,45,20.1,45,45C95,74.7,74.9,94.9,50,94.9z"/>
		</g>
	</g>
</g>
</svg>
