<?xml version="1.0" encoding="utf-8"?>
<!-- Generator: Adobe Illustrator 19.2.1, SVG Export Plug-In . SVG Version: 6.00 Build 0)  -->
<svg version="1.1" id="Layer_1" xmlns="http://www.w3.org/2000/svg" xmlns:xlink="http://www.w3.org/1999/xlink" x="0px" y="0px"
	 width="100px" height="100px" viewBox="0 0 100 100" style="enable-background:new 0 0 100 100;" xml:space="preserve">
<style type="text/css">
	.st0{fill:#F1F2F2;}
	.st1{fill:#414042;}
	.st2{fill:#85B6D1;stroke:#020202;stroke-width:6;stroke-linecap:round;stroke-linejoin:round;}
</style>
<circle class="st0" cx="50" cy="50" r="45"/>
<g>
	<path class="st1" d="M68,26H32c-3.3,0-6,2.7-6,6v36c0,3.3,2.7,6,6,6h36c3.3,0,6-2.7,6-6V32C74,28.7,71.3,26,68,26z M50,44
		c5.5,0,6,6,6,6s0.2,6-6,6c-6.2,0-6-6-6-6S44.5,44,50,44z M68,65c0,1.7-1.3,3-3,3H35c-1.7,0-3-1.3-3-3V50c0-1.7,1.3-3,3-3h3.4
		c-0.3,1-0.4,2-0.4,3c0,6.6,5.4,12,12,12s12-5.4,12-12c0-1-0.2-2-0.4-3H65c1.7,0,3,1.3,3,3V65z M68,38c0,1.7-1.3,3-3,3h-3
		c-1.7,0-3-1.3-3-3v-3c0-1.7,1.3-3,3-3h3c1.7,0,3,1.3,3,3V38z"/>
	<g>
		<g>
			<path class="st1" d="M50,2C23.5,2,2,23.5,2,50c0,26.5,21.5,48,48,48c26.5,0,48-21.5,48-48C98,23.5,76.5,2,50,2z M50,95
				C25.2,95,5,74.8,5,50C5,25.1,25.2,5,50,5c24.9,0,45,20.1,45,45C95,74.8,74.9,95,50,95z"/>
		</g>
	</g>
</g>
</svg>
