<?xml version="1.0" encoding="utf-8"?>
<!-- Generator: Adobe Illustrator 19.2.1, SVG Export Plug-In . SVG Version: 6.00 Build 0)  -->
<svg version="1.1" id="Layer_1" xmlns="http://www.w3.org/2000/svg" xmlns:xlink="http://www.w3.org/1999/xlink" x="0px" y="0px"
	 width="100px" height="100px" viewBox="0 0 100 100" style="enable-background:new 0 0 100 100;" xml:space="preserve">
<style type="text/css">
	.st0{fill:#EF4223;}
	.st1{fill:#414042;}
	.st2{fill:#85B6D1;stroke:#020202;stroke-width:6;stroke-linecap:round;stroke-linejoin:round;}
</style>
<g>
	<polygon class="st0" points="24.4,91 6.9,90.5 8.4,28.9 23.4,22.6 	"/>
	<polygon class="st0" points="23.4,29.2 18.1,33.5 18.1,16.9 23.4,12.5 	"/>
	<path class="st0" d="M27.4,89.9h55.6c8,0,8.5-6.7,8.5-8V14.1H29.8v67.8C29.8,84.3,29,87.3,27.4,89.9z"/>
</g>
<g>
	<path class="st1" d="M83.1,96.1H15.7l0,0C5.6,96.1,2,88.1,2,82.8v-57c0-1.7,1.4-3.1,3.2-3.1H12c1.8,0,3.2,1.4,3.2,3.1
		s-1.4,3.1-3.2,3.1H8.4v53.8c0,1.1,0.4,7.1,7.4,7.1c7.4,0,7.6-7.1,7.6-8V11c0-1.7,1.4-3.1,3.2-3.1h68.2c1.8,0,3.2,1.4,3.2,3.1v70.9
		c0,0.6-0.1,6.3-4.3,10.3C91,94.8,87.4,96.1,83.1,96.1z M27.4,89.9h55.6c8,0,8.5-6.7,8.5-8V14.1H29.8v67.8
		C29.8,84.3,29,87.3,27.4,89.9z"/>
</g>
<g>
	<path class="st1" d="M14.8,84.2c-1.8,0-3.3-1.5-3.3-3.3V13.6c0-1.8,1.5-3.3,3.3-3.3H26c1.8,0,3.3,1.5,3.3,3.3
		c0,1.8-1.5,3.3-3.3,3.3h-7.9V81C18.1,82.8,16.6,84.2,14.8,84.2z"/>
</g>
<g>
	<path class="st1" d="M62.3,26.1H37.3c-1.8,0-3.3-1.5-3.3-3.3c0-1.8,1.5-3.3,3.3-3.3h24.9c1.8,0,3.3,1.5,3.3,3.3
		C65.6,24.6,64,26.1,62.3,26.1z"/>
</g>
<g>
	<path class="st1" d="M62.3,39.7H37.3c-1.8,0-3.3-1.5-3.3-3.3c0-1.8,1.5-3.3,3.3-3.3h24.9c1.8,0,3.3,1.5,3.3,3.3
		C65.6,38.3,64,39.7,62.3,39.7z"/>
</g>
<g>
	<path class="st1" d="M62.3,53.4H37.3c-1.8,0-3.3-1.5-3.3-3.3s1.5-3.3,3.3-3.3h24.9c1.8,0,3.3,1.5,3.3,3.3S64,53.4,62.3,53.4z"/>
</g>
<g>
	<path class="st1" d="M85,67.1H37.3c-1.8,0-3.3-1.5-3.3-3.3s1.5-3.3,3.3-3.3H85c1.8,0,3.3,1.5,3.3,3.3S86.8,67.1,85,67.1z"/>
</g>
<g>
	<path class="st1" d="M85,80.7H37.3c-1.8,0-3.3-1.5-3.3-3.3c0-1.8,1.5-3.3,3.3-3.3H85c1.8,0,3.3,1.5,3.3,3.3
		C88.3,79.3,86.8,80.7,85,80.7z"/>
</g>
<g>
	<path class="st1" d="M84.3,53.4H73.2c-1.5,0-2.8-1.2-2.8-2.8V22.3c0-1.5,1.2-2.8,2.8-2.8h11.1c1.5,0,2.8,1.2,2.8,2.8v28.3
		C87.1,52.1,85.9,53.4,84.3,53.4z M76,47.7h5.5V25H76V47.7z"/>
</g>
</svg>
