<?xml version="1.0" encoding="utf-8"?>
<!-- Generator: Adobe Illustrator 19.2.1, SVG Export Plug-In . SVG Version: 6.00 Build 0)  -->
<svg version="1.1" id="Layer_1" xmlns="http://www.w3.org/2000/svg" xmlns:xlink="http://www.w3.org/1999/xlink" x="0px" y="0px"
	 width="100px" height="100px" viewBox="0 0 100 100" style="enable-background:new 0 0 100 100;" xml:space="preserve">
<style type="text/css">
	.st0{fill:#EF4223;}
	.st1{fill:#414042;}
	.st2{fill:#85B6D1;stroke:#020202;stroke-width:6;stroke-linecap:round;stroke-linejoin:round;}
</style>
<g>
	<polygon class="st0" points="24.3,92.2 6.8,91.6 8.3,29.3 23.3,23 	"/>
	<polygon class="st0" points="24.4,29.5 18,34 18,17.2 24.3,12.8 	"/>
	<path class="st0" d="M26,91.1h57c8,0,8.5-6.7,8.5-8V14.4H29.7v68.6C29.7,85.4,27.6,88.4,26,91.1z"/>
</g>
<g>
	<path class="st1" d="M83.1,96.7H15.7l0,0C5.6,96.7,2,88.7,2,83.3v-57c0-1.7,1.4-3.1,3.2-3.1H12c1.8,0,3.2,1.4,3.2,3.1
		s-1.4,3.1-3.2,3.1H8.4v53.8c0,1.1,0.4,7.1,7.4,7.1c7.4,0,7.6-7.1,7.6-8V11.6c0-1.7,1.4-3.1,3.2-3.1h68.2c1.8,0,3.2,1.4,3.2,3.1
		v70.9c0,0.6-0.1,6.3-4.3,10.3C91,95.4,87.4,96.7,83.1,96.7z M27.4,90.5h55.6c8,0,8.5-6.7,8.5-8V14.6H29.8v67.8
		C29.8,84.9,29,87.9,27.4,90.5z"/>
</g>
<g>
	<path class="st1" d="M14.8,84.8c-1.8,0-3.3-1.5-3.3-3.3V14.2c0-1.8,1.5-3.3,3.3-3.3H26c1.8,0,3.3,1.5,3.3,3.3
		c0,1.8-1.5,3.3-3.3,3.3h-7.9v64.1C18.1,83.3,16.6,84.8,14.8,84.8z"/>
</g>
<g>
	<path class="st1" d="M85,67.8H37.3c-1.8,0-3.3-1.5-3.3-3.3s1.5-3.3,3.3-3.3H85c1.8,0,3.3,1.5,3.3,3.3S86.8,67.8,85,67.8z"/>
</g>
<g>
	<path class="st1" d="M85,53.4H37.3c-1.8,0-3.3-1.5-3.3-3.3c0-1.9,1.5-3.3,3.3-3.3H85c1.8,0,3.3,1.5,3.3,3.3
		C88.3,51.9,86.8,53.4,85,53.4z"/>
</g>
<g>
	<path class="st1" d="M85,82.3H37.3c-1.8,0-3.3-1.5-3.3-3.3c0-1.8,1.5-3.3,3.3-3.3H85c1.8,0,3.3,1.5,3.3,3.3
		C88.3,80.8,86.8,82.3,85,82.3z"/>
</g>
<g>
	<path class="st1" d="M87.6,25v11.1c0,1.5-1.2,2.8-2.8,2.8H56.5c-1.5,0-2.8-1.2-2.8-2.8V25c0-1.5,1.2-2.8,2.8-2.8h28.3
		C86.3,22.2,87.6,23.4,87.6,25z M81.9,33.3v-5.5H59.3v5.5H81.9z"/>
</g>
</svg>
