<?xml version="1.0" encoding="utf-8"?>
<!-- Generator: Adobe Illustrator 19.2.1, SVG Export Plug-In . SVG Version: 6.00 Build 0)  -->
<svg version="1.1" id="Layer_1" xmlns="http://www.w3.org/2000/svg" xmlns:xlink="http://www.w3.org/1999/xlink" x="0px" y="0px"
	 width="100px" height="100px" viewBox="0 0 100 100" style="enable-background:new 0 0 100 100;" xml:space="preserve">
<style type="text/css">
	.st0{fill:#EF4223;}
	.st1{fill:#414042;}
	.st2{fill:#85B6D1;stroke:#020202;stroke-width:6;stroke-linecap:round;stroke-linejoin:round;}
</style>
<g>
	<polygon class="st0" points="25.1,92 7.6,91.5 9,29.8 24.1,23.6 	"/>
	<polygon class="st0" points="24.1,30.2 18.7,34.5 18.7,17.9 24.1,13.5 	"/>
	<path class="st0" d="M28.1,90.9h55.6c8,0,8.5-6.7,8.5-8V15.1H30.4v67.8C30.4,85.3,29.7,88.3,28.1,90.9z"/>
</g>
<g>
	<path class="st1" d="M83.7,97.1H16.3l0,0c-10.1,0-13.7-8-13.7-13.3v-57c0-1.7,1.4-3.1,3.2-3.1h6.8c1.8,0,3.2,1.4,3.2,3.1
		s-1.4,3.1-3.2,3.1H9v53.8c0,1.1,0.4,7.1,7.4,7.1c7.4,0,7.6-7.1,7.6-8V12c0-1.7,1.4-3.1,3.2-3.1h68.2c1.8,0,3.2,1.4,3.2,3.1v70.9
		c0,0.6-0.1,6.3-4.3,10.3C91.7,95.8,88.1,97.1,83.7,97.1z M28.1,90.9h55.6c8,0,8.5-6.7,8.5-8V15.1H30.4v67.8
		C30.4,85.3,29.7,88.3,28.1,90.9z"/>
</g>
<g>
	<path class="st1" d="M15.4,85.2c-1.8,0-3.3-1.5-3.3-3.3V14.6c0-1.8,1.5-3.3,3.3-3.3h11.2c1.8,0,3.3,1.5,3.3,3.3
		c0,1.8-1.5,3.3-3.3,3.3h-7.9V82C18.7,83.8,17.3,85.2,15.4,85.2z"/>
</g>
<g>
	<path class="st1" d="M85.2,78.7H37.6c-1.8,0-3.3-1.5-3.3-3.3c0-1.9,1.5-3.3,3.3-3.3h47.7c1.8,0,3.3,1.5,3.3,3.3
		C88.6,77.2,87,78.7,85.2,78.7z"/>
</g>
<g>
	<path class="st1" d="M85.2,64.2H37.6c-1.8,0-3.3-1.5-3.3-3.3s1.5-3.3,3.3-3.3h47.7c1.8,0,3.3,1.5,3.3,3.3S87,64.2,85.2,64.2z"/>
</g>
<g>
	<path class="st1" d="M85.2,49.5H37.6c-1.8,0-3.3-1.5-3.3-3.3s1.5-3.3,3.3-3.3h47.7c1.8,0,3.3,1.5,3.3,3.3S87,49.5,85.2,49.5z"/>
</g>
</svg>
