<?xml version="1.0" encoding="utf-8"?>
<!-- Generator: Adobe Illustrator 19.2.1, SVG Export Plug-In . SVG Version: 6.00 Build 0)  -->
<svg version="1.1" id="Layer_1" xmlns="http://www.w3.org/2000/svg" xmlns:xlink="http://www.w3.org/1999/xlink" x="0px" y="0px"
	 width="100px" height="100px" viewBox="0 0 100 100" style="enable-background:new 0 0 100 100;" xml:space="preserve">
<style type="text/css">
	.st0{fill:#F1F2F2;}
	.st1{fill:#414042;}
	.st2{fill:#85B6D1;stroke:#020202;stroke-width:6;stroke-linecap:round;stroke-linejoin:round;}
</style>
<circle class="st0" cx="50" cy="50" r="45.1"/>
<g>
	<g>
		<g>
			<path class="st1" d="M50,2C23.5,2,2,23.5,2,50c0,26.5,21.5,48,48,48c26.5,0,48-21.5,48-48C98,23.5,76.5,2,50,2z M50,95
				C25.2,95,5,74.8,5,50C5,25.1,25.2,5,50,5c24.9,0,45,20.1,45,45C95,74.8,74.9,95,50,95z"/>
		</g>
	</g>
	<path class="st1" d="M67.6,67.6c-11.1-6.8-24.9-8.4-40.9-4.7c-1.4,0.3-2.3,1.7-2,3.1c0.3,1.4,1.7,2.3,3.1,2c14.7-3.3,27.1-2,37,4.1
		c1.2,0.8,2.8,0.4,3.6-0.9C69.2,69.9,68.8,68.3,67.6,67.6z"/>
	<path class="st1" d="M72.5,54.5c-13-8-32-10.2-47.3-5.6c-1.7,0.5-2.7,2.4-2.2,4.1c0.5,1.7,2.4,2.7,4.1,2.2c13.4-4.1,30.7-2,42,4.9
		c1.5,1,3.6,0.5,4.5-1.1C74.6,57.5,74.1,55.5,72.5,54.5z"/>
	<path class="st1" d="M78.1,39.7c-15.6-9.3-40.4-10.2-55.3-5.6c-2.1,0.6-3.3,2.8-2.6,4.9c0.6,2.1,2.8,3.3,4.9,2.6
		c13-3.9,35.4-3.2,49,4.9c1.9,1.1,4.3,0.5,5.4-1.4C80.6,43.2,79.9,40.8,78.1,39.7z"/>
</g>
</svg>
