<?xml version="1.0" encoding="utf-8"?>
<!-- Generator: Adobe Illustrator 19.2.1, SVG Export Plug-In . SVG Version: 6.00 Build 0)  -->
<svg version="1.1" id="Layer_1" xmlns="http://www.w3.org/2000/svg" xmlns:xlink="http://www.w3.org/1999/xlink" x="0px" y="0px"
	 width="36px" height="36px" viewBox="0 0 36 36" style="enable-background:new 0 0 36 36;" xml:space="preserve">
<style type="text/css">
	.st0{fill:#EF4223;}
	.st1{fill:#414042;}
	.st2{fill:none;stroke:#414042;stroke-width:2;stroke-miterlimit:10;}
</style>
<g id="Layer_1_1_">
	<g>
		<path class="st0" d="M4.7,35c-2,0-3.7-1.7-3.7-3.7V4.7C1,2.7,2.7,1,4.7,1h26.6c2,0,3.7,1.7,3.7,3.7v26.6c0,2-1.7,3.7-3.7,3.7H4.7z
			"/>
		<path class="st1" d="M31.3,2C32.8,2,34,3.2,34,4.7v26.6c0,1.5-1.2,2.7-2.7,2.7H4.7C3.2,34,2,32.8,2,31.3V4.7C2,3.2,3.2,2,4.7,2
			H31.3 M31.3,0H4.7C2.1,0,0,2.1,0,4.7v26.6C0,33.9,2.1,36,4.7,36h26.6c2.6,0,4.7-2.1,4.7-4.7V4.7C36,2.1,33.9,0,31.3,0L31.3,0z"/>
	</g>
	<circle class="st2" cx="16.2" cy="16.3" r="8.7"/>
	<g>
		<g>
			<path class="st1" d="M22,24.7c1.6,1.6,3.1,3.1,4.7,4.7c1.8,1.8,4.5-1,2.8-2.8c-1.6-1.6-3.1-3.1-4.7-4.7
				C23,20.2,20.2,22.9,22,24.7L22,24.7z"/>
		</g>
	</g>
</g>
<g id="Layer_2">
</g>
<g id="Layer_3">
</g>
</svg>
