<?xml version="1.0" encoding="utf-8"?>
<!-- Generator: Adobe Illustrator 19.2.1, SVG Export Plug-In . SVG Version: 6.00 Build 0)  -->
<svg version="1.1" xmlns="http://www.w3.org/2000/svg" xmlns:xlink="http://www.w3.org/1999/xlink" x="0px" y="0px" width="100px"
	 height="100px" viewBox="0 0 100 100" style="enable-background:new 0 0 100 100;" xml:space="preserve">
<style type="text/css">
	.st0{fill:#EF4223;stroke:#414042;stroke-width:3;stroke-miterlimit:10;}
	.st1{fill:#EF4223;}
	.st2{fill:#414042;}
	.st3{fill:#85B6D1;stroke:#020202;stroke-width:6;stroke-linecap:round;stroke-linejoin:round;}
	.st4{fill:none;stroke:#414042;stroke-width:6;stroke-miterlimit:10;}
</style>
<g id="Layer_1">
	<path class="st0" d="M84.2,96.1h-68c-6.6,0-12-5.4-12-12v-68c0-6.6,5.4-12,12-12h68c6.6,0,12,5.4,12,12v68
		C96.2,90.7,90.8,96.1,84.2,96.1z"/>
	<circle class="st4" cx="45.5" cy="45.8" r="22.3"/>
	<g>
		<g>
			<path class="st2" d="M60.4,67.3c4,4,8,8,12,12c4.6,4.6,11.6-2.5,7.1-7.1c-4-4-8-8-12-12C62.9,55.6,55.8,62.7,60.4,67.3L60.4,67.3
				z"/>
		</g>
	</g>
</g>
<g id="Layer_2">
</g>
<g id="Layer_3">
</g>
</svg>
