<?xml version="1.0" encoding="utf-8"?>
<!-- Generator: Adobe Illustrator 19.2.1, SVG Export Plug-In . SVG Version: 6.00 Build 0)  -->
<svg version="1.1" id="Layer_1" xmlns="http://www.w3.org/2000/svg" xmlns:xlink="http://www.w3.org/1999/xlink" x="0px" y="0px"
	 width="100px" height="100px" viewBox="0 0 100 100" style="enable-background:new 0 0 100 100;" xml:space="preserve">
<style type="text/css">
	.st0{fill:#F1F2F2;}
	.st1{fill:#414042;}
	.st2{fill:#85B6D1;stroke:#020202;stroke-width:6;stroke-linecap:round;stroke-linejoin:round;}
	.st3{fill:#F1F2F2;stroke:#414042;stroke-width:3;stroke-miterlimit:10;}
	.st4{fill:#F1F2F2;stroke:#414042;stroke-width:6;stroke-miterlimit:10;}
</style>
<path class="st3" d="M84,96H16C9.4,96,4,90.6,4,84V16C4,9.4,9.4,4,16,4h68c6.6,0,12,5.4,12,12v68C96,90.6,90.6,96,84,96z"/>
<circle class="st4" cx="45.3" cy="45.7" r="22.3"/>
<g>
	<line class="st0" x1="63.7" y1="63.7" x2="75.7" y2="75.7"/>
	<g>
		<path class="st1" d="M60.1,67.2c4,4,8,8,12,12c4.6,4.6,11.6-2.5,7.1-7.1c-4-4-8-8-12-12C62.7,55.6,55.6,62.7,60.1,67.2L60.1,67.2z
			"/>
	</g>
</g>
</svg>
