<?xml version="1.0" encoding="utf-8"?>
<!-- Generator: Adobe Illustrator 19.2.1, SVG Export Plug-In . SVG Version: 6.00 Build 0)  -->
<svg version="1.1" id="Layer_1" xmlns="http://www.w3.org/2000/svg" xmlns:xlink="http://www.w3.org/1999/xlink" x="0px" y="0px"
	 width="100px" height="100px" viewBox="0 0 100 100" style="enable-background:new 0 0 100 100;" xml:space="preserve">
<style type="text/css">
	.st0{fill:#F05252;}
	.st1{fill:#414042;}
	.st2{fill:#85B6D1;stroke:#020202;stroke-width:6;stroke-linecap:round;stroke-linejoin:round;}
</style>
<circle class="st0" cx="50" cy="50" r="45.1"/>
<path class="st1" d="M75.5,28.9c-2.1,1.3-4.5,2.2-7,2.7c-2-2.1-4.9-3.5-8.1-3.5c-6.1,0-11.1,5-11.1,11.1c0,0.9,0.1,1.7,0.3,2.5
	c-9.2-0.5-17.4-4.9-22.8-11.6c-1,1.6-1.5,3.5-1.5,5.6c0,3.8,2,7.2,4.9,9.2c-1.8-0.1-3.5-0.6-5-1.4c0,0,0,0.1,0,0.1
	c0,5.4,3.8,9.8,8.9,10.9c-0.9,0.3-1.9,0.4-2.9,0.4c-0.7,0-1.4-0.1-2.1-0.2c1.4,4.4,5.5,7.6,10.4,7.7c-3.8,3-8.6,4.7-13.8,4.7
	c-0.9,0-1.8,0-2.6-0.2c4.9,3.1,10.7,5,17,5c20.4,0,31.5-16.9,31.5-31.5c0-0.5,0-1,0-1.4c2.2-1.6,4-3.5,5.5-5.7
	c-2,0.9-4.1,1.5-6.4,1.7C72.9,33.6,74.7,31.5,75.5,28.9z"/>
<g>
	<g>
		<g>
			<path class="st1" d="M50,2C23.5,2,2,23.5,2,50c0,26.5,21.5,48,48,48c26.5,0,48-21.5,48-48C98,23.5,76.5,2,50,2z M55.9,94.6
				C26.4,98.3,1.6,73.6,5.4,44.1C7.9,24.1,24.1,7.9,44.2,5.4c29.4-3.7,54.2,21,50.5,50.5C92.1,75.9,75.9,92.1,55.9,94.6z"/>
		</g>
	</g>
</g>
</svg>
