<?xml version="1.0" encoding="utf-8"?><svg id="Layer_1" xmlns="http://www.w3.org/2000/svg" width="100" height="100" viewBox="0 0 100 100"><style>.st0{fill:#f05252}.st1{fill:#414042}.st2{fill:#85b6d1;stroke:#020202;stroke-width:6;stroke-linecap:round;stroke-linejoin:round}</style><circle class="st0" cx="50" cy="50" r="45.1"/><path class="st1" d="M52.2 34.4c0-.9.5-2.2 2-2.2h5.2V23h-9.7c-3.3 0-8.3 4.1-8.3 8.5v9.4h-5.6v9.2h5.6V72h10.7V50.2h7.3l1.8-9.1h-9v-6.7z"/><path class="st1" d="M50 2C23.5 2 2 23.5 2 50s21.5 48 48 48 48-21.5 48-48S76.5 2 50 2zm0 93C25.1 95 5 74.8 5 50 5 25.1 25.1 5 50 5s45 20.1 45 45c0 24.8-20.1 45-45 45z"/></svg>