<?xml version="1.0" encoding="utf-8"?><svg id="Layer_1" xmlns="http://www.w3.org/2000/svg" width="100" height="100" viewBox="0 0 100 100"><style>.st0{fill:#f1f2f2}.st1{fill:#414042}.st2{fill:#85b6d1;stroke:#020202;stroke-width:6;stroke-linecap:round;stroke-linejoin:round}</style><circle class="st0" cx="50" cy="50" r="45"/><path class="st1" d="M68 26H32c-3.3 0-6 2.7-6 6v36c0 3.3 2.7 6 6 6h36c3.3 0 6-2.7 6-6V32c0-3.3-2.7-6-6-6zM50 44c5.5 0 6 6 6 6s.2 6-6 6-6-6-6-6 .5-6 6-6zm18 21c0 1.7-1.3 3-3 3H35c-1.7 0-3-1.3-3-3V50c0-1.7 1.3-3 3-3h3.4c-.3 1-.4 2-.4 3 0 6.6 5.4 12 12 12s12-5.4 12-12c0-1-.2-2-.4-3H65c1.7 0 3 1.3 3 3v15zm0-27c0 1.7-1.3 3-3 3h-3c-1.7 0-3-1.3-3-3v-3c0-1.7 1.3-3 3-3h3c1.7 0 3 1.3 3 3v3z"/><path class="st1" d="M50 2C23.5 2 2 23.5 2 50s21.5 48 48 48 48-21.5 48-48S76.5 2 50 2zm0 93C25.2 95 5 74.8 5 50 5 25.1 25.2 5 50 5c24.9 0 45 20.1 45 45 0 24.8-20.1 45-45 45z"/></svg>