<?xml version="1.0" encoding="utf-8"?><svg id="Layer_1" xmlns="http://www.w3.org/2000/svg" width="100" height="100" viewBox="0 0 100 100"><style>.st0{fill:#f1f2f2}.st1{fill:#414042}.st2{fill:#85b6d1;stroke:#020202;stroke-width:6;stroke-linecap:round;stroke-linejoin:round}</style><path class="st1" d="M83.1 96.7H15.7C5.6 96.7 2 88.7 2 83.3v-57c0-1.7 1.4-3.1 3.2-3.1H12c1.8 0 3.2 1.4 3.2 3.1s-1.4 3.1-3.2 3.1H8.4v53.8c0 1.1.4 7.1 7.4 7.1 7.4 0 7.6-7.1 7.6-8V11.6c0-1.7 1.4-3.1 3.2-3.1h68.2c1.8 0 3.2 1.4 3.2 3.1v70.9c0 .6-.1 6.3-4.3 10.3-2.7 2.6-6.3 3.9-10.6 3.9zm-55.7-6.2H83c8 0 8.5-6.7 8.5-8V14.6H29.8v67.8c0 2.5-.8 5.5-2.4 8.1z"/><path class="st1" d="M14.8 84.8c-1.8 0-3.3-1.5-3.3-3.3V14.2c0-1.8 1.5-3.3 3.3-3.3H26c1.8 0 3.3 1.5 3.3 3.3 0 1.8-1.5 3.3-3.3 3.3h-7.9v64.1c0 1.7-1.5 3.2-3.3 3.2zM85 67.8H37.3c-1.8 0-3.3-1.5-3.3-3.3s1.5-3.3 3.3-3.3H85c1.8 0 3.3 1.5 3.3 3.3s-1.5 3.3-3.3 3.3zM85 53.4H37.3c-1.8 0-3.3-1.5-3.3-3.3 0-1.9 1.5-3.3 3.3-3.3H85c1.8 0 3.3 1.5 3.3 3.3 0 1.8-1.5 3.3-3.3 3.3zM85 82.3H37.3c-1.8 0-3.3-1.5-3.3-3.3 0-1.8 1.5-3.3 3.3-3.3H85c1.8 0 3.3 1.5 3.3 3.3 0 1.8-1.5 3.3-3.3 3.3zM87.6 25v11.1c0 1.5-1.2 2.8-2.8 2.8H56.5c-1.5 0-2.8-1.2-2.8-2.8V25c0-1.5 1.2-2.8 2.8-2.8h28.3c1.5 0 2.8 1.2 2.8 2.8zm-5.7 8.3v-5.5H59.3v5.5h22.6z"/></svg>