<?xml version="1.0" encoding="utf-8"?><svg id="Layer_1" xmlns="http://www.w3.org/2000/svg" width="100" height="100" viewBox="0 0 100 100"><style>.st0{fill:#ef4223}.st1{fill:#414042}.st2{fill:#85b6d1;stroke:#020202;stroke-width:6;stroke-linecap:round;stroke-linejoin:round}</style><circle class="st0" cx="50" cy="49.9" r="45.1"/><path class="st1" d="M66.1 60.5h3.7v-7.4h7.3v-3.7h-7.3V42h-3.7v7.4h-7.4v3.7h7.4M53.6 57.8c-.5-.7-1.1-1.3-1.7-1.9-.6-.6-1.2-1.1-1.8-1.6-.6-.5-1.2-.9-1.7-1.4-.5-.4-.9-.9-1.2-1.4-.3-.5-.5-1-.5-1.5 0-.7.2-1.3.7-1.9.4-.6 1-1.2 1.6-1.8.6-.6 1.3-1.2 1.9-1.9.6-.7 1.2-1.6 1.6-2.7.4-1.1.7-2.4.7-3.8 0-1.7-.4-3.3-1.1-4.9-.8-1.6-1.8-2.8-3.2-3.6h3.9l3.9-2.3H44c-1.8 0-3.6.2-5.4.6-2.7.6-4.9 2-6.8 4.1-1.8 2.1-2.7 4.5-2.7 7.2 0 2.8 1 5.2 3.1 7.1 2 1.9 4.5 2.8 7.4 2.8.6 0 1.2 0 2-.1 0 .2-.1.4-.2.6-.1.3-.2.5-.2.6-.1.2-.1.3-.1.6 0 .2-.1.4-.1.7 0 1.3.6 2.7 1.8 4.3-1.5 0-2.9.2-4.3.4s-2.9.6-4.5 1c-1.6.5-3 1.2-4.2 2-1.2.9-2.2 2-2.8 3.2-.7 1.4-1.1 2.7-1.1 3.9 0 1.3.3 2.5.9 3.5.6 1 1.3 1.9 2.2 2.6.9.7 1.9 1.2 3.1 1.7 1.2.5 2.4.8 3.5 1 1.2.2 2.3.3 3.4.3 5.2 0 9.2-1.3 12.1-3.8 2.7-2.3 4-5.1 4-8.1 0-1.1-.2-2.1-.5-3.1-.1-.9-.5-1.7-1-2.4zM42.4 47.3c-1 0-1.9-.2-2.8-.8-.9-.5-1.6-1.1-2.2-1.9-.6-.8-1.2-1.7-1.6-2.7-.5-1-.8-2-1-3-.2-1-.3-2-.3-2.9 0-1.8.5-3.4 1.5-4.8 1-1.3 2.4-2 4.2-2 1.3 0 2.4.4 3.4 1.2 1 .8 1.8 1.8 2.4 3 .6 1.2 1 2.5 1.4 3.8.3 1.3.5 2.5.5 3.7 0 1.9-.4 3.5-1.3 4.6-.9 1.2-2.3 1.8-4.2 1.8zm8 21.7c-.5.9-1.2 1.6-2.1 2.1-.9.5-1.9.9-2.9 1.1-1 .2-2.1.4-3.2.4-1.2 0-2.5-.1-3.7-.4-1.2-.3-2.4-.7-3.5-1.3-1.1-.6-2-1.4-2.7-2.4-.7-1-1-2.2-1-3.5 0-1.2.3-2.2.8-3.1.5-.9 1.2-1.6 2-2.2.8-.5 1.7-1 2.8-1.3 1.1-.4 2.1-.7 3.1-.8 1-.1 2-.2 3.1-.2.6 0 1.1 0 1.4.1.1.1.4.3.9.6s.8.5 1 .7c.2.1.5.3.9.7.4.3.7.6.9.7.2.2.4.4.8.7.3.3.6.6.8.9.2.2.4.5.6.9.2.3.4.7.5 1 .1.3.2.7.3 1 .1.4.1.8.1 1.2-.1 1.1-.4 2.2-.9 3.1z"/><path class="st1" d="M50 1.9c-26.5 0-48 21.5-48 48s21.5 48 48 48 48-21.5 48-48-21.5-48-48-48zm0 93c-24.9 0-45-20.2-45-45 0-24.9 20.1-45 45-45s45 20.1 45 45c0 24.8-20.1 45-45 45z"/></svg>