<?xml version="1.0" encoding="utf-8"?><svg id="Layer_1" xmlns="http://www.w3.org/2000/svg" width="100" height="100" viewBox="0 0 100 100"><style>.st0{fill:#ef4223}.st1{fill:#414042}.st2{fill:#85b6d1;stroke:#020202;stroke-width:6;stroke-linecap:round;stroke-linejoin:round}</style><path class="st0" d="M25.1 92l-17.5-.5L9 29.8l15.1-6.2z"/><path class="st0" d="M24.1 30.2l-5.4 4.3V17.9l5.4-4.4zM28.1 90.9h55.6c8 0 8.5-6.7 8.5-8V15.1H30.4v67.8c0 2.4-.7 5.4-2.3 8z"/><path class="st1" d="M83.7 97.1H16.3c-10.1 0-13.7-8-13.7-13.3v-57c0-1.7 1.4-3.1 3.2-3.1h6.8c1.8 0 3.2 1.4 3.2 3.1s-1.4 3.1-3.2 3.1H9v53.8c0 1.1.4 7.1 7.4 7.1 7.4 0 7.6-7.1 7.6-8V12c0-1.7 1.4-3.1 3.2-3.1h68.2c1.8 0 3.2 1.4 3.2 3.1v70.9c0 .6-.1 6.3-4.3 10.3-2.6 2.6-6.2 3.9-10.6 3.9zm-55.6-6.2h55.6c8 0 8.5-6.7 8.5-8V15.1H30.4v67.8c0 2.4-.7 5.4-2.3 8z"/><path class="st1" d="M15.4 85.2c-1.8 0-3.3-1.5-3.3-3.3V14.6c0-1.8 1.5-3.3 3.3-3.3h11.2c1.8 0 3.3 1.5 3.3 3.3 0 1.8-1.5 3.3-3.3 3.3h-7.9V82c0 1.8-1.4 3.2-3.3 3.2zM85.2 78.7H37.6c-1.8 0-3.3-1.5-3.3-3.3 0-1.9 1.5-3.3 3.3-3.3h47.7c1.8 0 3.3 1.5 3.3 3.3 0 1.8-1.6 3.3-3.4 3.3z"/><g><path class="st1" d="M85.2 64.2H37.6c-1.8 0-3.3-1.5-3.3-3.3s1.5-3.3 3.3-3.3h47.7c1.8 0 3.3 1.5 3.3 3.3s-1.6 3.3-3.4 3.3z"/></g><g><path class="st1" d="M85.2 49.5H37.6c-1.8 0-3.3-1.5-3.3-3.3s1.5-3.3 3.3-3.3h47.7c1.8 0 3.3 1.5 3.3 3.3s-1.6 3.3-3.4 3.3z"/></g></svg>