<?xml version="1.0" encoding="utf-8"?><svg id="Layer_1" xmlns="http://www.w3.org/2000/svg" width="100" height="100" viewBox="0 0 100 100"><style>.st0{fill:#ef4223}.st1{fill:#414042}.st2{fill:#85b6d1;stroke:#020202;stroke-width:6;stroke-linecap:round;stroke-linejoin:round}</style><path class="st0" d="M24.4 91l-17.5-.5 1.5-61.6 15-6.3z"/><path class="st0" d="M23.4 29.2l-5.3 4.3V16.9l5.3-4.4zM27.4 89.9H83c8 0 8.5-6.7 8.5-8V14.1H29.8v67.8c0 2.4-.8 5.4-2.4 8z"/><path class="st1" d="M83.1 96.1H15.7C5.6 96.1 2 88.1 2 82.8v-57c0-1.7 1.4-3.1 3.2-3.1H12c1.8 0 3.2 1.4 3.2 3.1s-1.4 3.1-3.2 3.1H8.4v53.8c0 1.1.4 7.1 7.4 7.1 7.4 0 7.6-7.1 7.6-8V11c0-1.7 1.4-3.1 3.2-3.1h68.2c1.8 0 3.2 1.4 3.2 3.1v70.9c0 .6-.1 6.3-4.3 10.3-2.7 2.6-6.3 3.9-10.6 3.9zm-55.7-6.2H83c8 0 8.5-6.7 8.5-8V14.1H29.8v67.8c0 2.4-.8 5.4-2.4 8z"/><path class="st1" d="M14.8 84.2c-1.8 0-3.3-1.5-3.3-3.3V13.6c0-1.8 1.5-3.3 3.3-3.3H26c1.8 0 3.3 1.5 3.3 3.3 0 1.8-1.5 3.3-3.3 3.3h-7.9V81c0 1.8-1.5 3.2-3.3 3.2zM62.3 26.1h-25c-1.8 0-3.3-1.5-3.3-3.3 0-1.8 1.5-3.3 3.3-3.3h24.9c1.8 0 3.3 1.5 3.3 3.3.1 1.8-1.5 3.3-3.2 3.3zM62.3 39.7h-25c-1.8 0-3.3-1.5-3.3-3.3 0-1.8 1.5-3.3 3.3-3.3h24.9c1.8 0 3.3 1.5 3.3 3.3.1 1.9-1.5 3.3-3.2 3.3zM62.3 53.4h-25c-1.8 0-3.3-1.5-3.3-3.3s1.5-3.3 3.3-3.3h24.9c1.8 0 3.3 1.5 3.3 3.3s-1.5 3.3-3.2 3.3zM85 67.1H37.3c-1.8 0-3.3-1.5-3.3-3.3s1.5-3.3 3.3-3.3H85c1.8 0 3.3 1.5 3.3 3.3s-1.5 3.3-3.3 3.3z"/><g><path class="st1" d="M85 80.7H37.3c-1.8 0-3.3-1.5-3.3-3.3 0-1.8 1.5-3.3 3.3-3.3H85c1.8 0 3.3 1.5 3.3 3.3 0 1.9-1.5 3.3-3.3 3.3z"/></g><g><path class="st1" d="M84.3 53.4H73.2c-1.5 0-2.8-1.2-2.8-2.8V22.3c0-1.5 1.2-2.8 2.8-2.8h11.1c1.5 0 2.8 1.2 2.8 2.8v28.3c0 1.5-1.2 2.8-2.8 2.8zM76 47.7h5.5V25H76v22.7z"/></g></svg>