<?xml version="1.0" encoding="utf-8"?><svg id="Layer_1" xmlns="http://www.w3.org/2000/svg" width="100" height="100" viewBox="0 0 100 100"><style>.st0{fill:#f1f2f2}.st1{fill:#414042}.st2{fill:#85b6d1;stroke:#020202;stroke-width:6;stroke-linecap:round;stroke-linejoin:round}</style><circle class="st0" cx="50" cy="50" r="45.1"/><path class="st1" d="M50 2C23.5 2 2 23.5 2 50s21.5 48 48 48 48-21.5 48-48S76.5 2 50 2zm0 93C25.2 95 5 74.8 5 50 5 25.1 25.2 5 50 5c24.9 0 45 20.1 45 45 0 24.8-20.1 45-45 45z"/><path class="st1" d="M67.6 67.6c-11.1-6.8-24.9-8.4-40.9-4.7-1.4.3-2.3 1.7-2 3.1.3 1.4 1.7 2.3 3.1 2 14.7-3.3 27.1-2 37 4.1 1.2.8 2.8.4 3.6-.9.8-1.3.4-2.9-.8-3.6zM72.5 54.5c-13-8-32-10.2-47.3-5.6-1.7.5-2.7 2.4-2.2 4.1.5 1.7 2.4 2.7 4.1 2.2 13.4-4.1 30.7-2 42 4.9 1.5 1 3.6.5 4.5-1.1 1-1.5.5-3.5-1.1-4.5zM78.1 39.7c-15.6-9.3-40.4-10.2-55.3-5.6-2.1.6-3.3 2.8-2.6 4.9.6 2.1 2.8 3.3 4.9 2.6 13-3.9 35.4-3.2 49 4.9 1.9 1.1 4.3.5 5.4-1.4 1.1-1.9.4-4.3-1.4-5.4z"/></svg>