<?xml version="1.0" encoding="utf-8"?><svg id="Layer_1" xmlns="http://www.w3.org/2000/svg" width="100" height="100" viewBox="0 0 100 100"><style>.st0{fill:#f1f2f2}.st1{fill:#414042}.st2{fill:#85b6d1;stroke:#020202;stroke-width:6;stroke-linecap:round;stroke-linejoin:round}</style><circle class="st0" cx="50" cy="50" r="45.1"/><path class="st1" d="M75.5 28.9c-2.1 1.3-4.5 2.2-7 2.7-2-2.1-4.9-3.5-8.1-3.5-6.1 0-11.1 5-11.1 11.1 0 .9.1 1.7.3 2.5-9.2-.5-17.4-4.9-22.8-11.6-1 1.6-1.5 3.5-1.5 5.6 0 3.8 2 7.2 4.9 9.2-1.8-.1-3.5-.6-5-1.4v.1c0 5.4 3.8 9.8 8.9 10.9-.9.3-1.9.4-2.9.4-.7 0-1.4-.1-2.1-.2 1.4 4.4 5.5 7.6 10.4 7.7-3.8 3-8.6 4.7-13.8 4.7-.9 0-1.8 0-2.6-.2 4.9 3.1 10.7 5 17 5 20.4 0 31.5-16.9 31.5-31.5V39c2.2-1.6 4-3.5 5.5-5.7-2 .9-4.1 1.5-6.4 1.7 2.2-1.4 4-3.5 4.8-6.1z"/><path class="st1" d="M50 2C23.5 2 2 23.5 2 50s21.5 48 48 48 48-21.5 48-48S76.5 2 50 2zm5.9 92.6c-29.5 3.7-54.3-21-50.5-50.5 2.5-20 18.7-36.2 38.8-38.7 29.4-3.7 54.2 21 50.5 50.5-2.6 20-18.8 36.2-38.8 38.7z"/></svg>